<svg width="146" height="24" viewBox="0 0 146 24" fill="none" xmlns="http://www.w3.org/2000/svg">
<path d="M4.13 17.126C3.458 17.126 2.814 17.0233 2.198 16.818C1.59133 16.6127 1.08267 16.3233 0.672 15.95L1.134 14.942C1.59133 15.3153 2.06267 15.586 2.548 15.754C3.03333 15.922 3.54667 16.006 4.088 16.006C4.80667 16.006 5.35267 15.8567 5.726 15.558C6.09933 15.25 6.286 14.8113 6.286 14.242C6.286 13.682 6.09467 13.2573 5.712 12.968C5.33867 12.6787 4.788 12.534 4.06 12.534H2.548V11.456H3.962C4.578 11.456 5.07267 11.2973 5.446 10.98C5.81933 10.6627 6.006 10.2287 6.006 9.678C6.006 9.174 5.83333 8.79133 5.488 8.53C5.152 8.25933 4.67133 8.124 4.046 8.124C2.99133 8.124 2.07667 8.49267 1.302 9.23L0.84 8.236C1.232 7.844 1.71733 7.54067 2.296 7.326C2.87467 7.11133 3.486 7.004 4.13 7.004C5.11 7.004 5.88 7.228 6.44 7.676C7 8.124 7.28 8.74933 7.28 9.552C7.28 10.1587 7.10733 10.6813 6.762 11.12C6.426 11.5493 5.964 11.834 5.376 11.974V11.82C6.06667 11.9413 6.60333 12.226 6.986 12.674C7.36867 13.1127 7.56 13.6633 7.56 14.326C7.56 15.194 7.252 15.88 6.636 16.384C6.02933 16.8787 5.194 17.126 4.13 17.126ZM12.5945 17.126C11.4559 17.126 10.5739 16.8833 9.94853 16.398C9.3232 15.9127 9.01053 15.236 9.01053 14.368C9.01053 13.6867 9.22053 13.122 9.64053 12.674C10.0699 12.2167 10.6252 11.9413 11.3065 11.848V12.072C10.6812 11.9413 10.1819 11.6567 9.80853 11.218C9.44453 10.7793 9.26253 10.252 9.26253 9.636C9.26253 8.81467 9.55653 8.17067 10.1445 7.704C10.7419 7.23733 11.5585 7.004 12.5945 7.004C13.6399 7.004 14.4565 7.23733 15.0445 7.704C15.6419 8.17067 15.9405 8.81467 15.9405 9.636C15.9405 10.252 15.7632 10.784 15.4085 11.232C15.0632 11.68 14.5825 11.96 13.9665 12.072V11.848C14.6479 11.9413 15.1845 12.2167 15.5765 12.674C15.9779 13.122 16.1785 13.6867 16.1785 14.368C16.1785 15.236 15.8659 15.9127 15.2405 16.398C14.6245 16.8833 13.7425 17.126 12.5945 17.126ZM12.5945 16.076C13.3879 16.076 13.9759 15.9267 14.3585 15.628C14.7505 15.3293 14.9465 14.886 14.9465 14.298C14.9465 13.7007 14.7505 13.2573 14.3585 12.968C13.9759 12.6787 13.3879 12.534 12.5945 12.534C11.8105 12.534 11.2225 12.6787 10.8305 12.968C10.4385 13.2573 10.2425 13.7007 10.2425 14.298C10.2425 14.886 10.4385 15.3293 10.8305 15.628C11.2225 15.9267 11.8105 16.076 12.5945 16.076ZM12.5945 11.47C13.2759 11.47 13.7939 11.3207 14.1485 11.022C14.5125 10.714 14.6945 10.2893 14.6945 9.748C14.6945 9.216 14.5125 8.80067 14.1485 8.502C13.7939 8.20333 13.2759 8.054 12.5945 8.054C11.9225 8.054 11.4045 8.20333 11.0405 8.502C10.6765 8.80067 10.4945 9.216 10.4945 9.748C10.4945 10.2893 10.6765 10.714 11.0405 11.022C11.4045 11.3207 11.9225 11.47 12.5945 11.47ZM20.9191 17.126C20.2471 17.126 19.6031 17.0233 18.9871 16.818C18.3804 16.6127 17.8717 16.3233 17.4611 15.95L17.9231 14.942C18.3804 15.3153 18.8517 15.586 19.3371 15.754C19.8224 15.922 20.3357 16.006 20.8771 16.006C21.5957 16.006 22.1417 15.8567 22.5151 15.558C22.8884 15.25 23.0751 14.8113 23.0751 14.242C23.0751 13.682 22.8837 13.2573 22.5011 12.968C22.1277 12.6787 21.5771 12.534 20.8491 12.534H19.3371V11.456H20.7511C21.3671 11.456 21.8617 11.2973 22.2351 10.98C22.6084 10.6627 22.7951 10.2287 22.7951 9.678C22.7951 9.174 22.6224 8.79133 22.2771 8.53C21.9411 8.25933 21.4604 8.124 20.8351 8.124C19.7804 8.124 18.8657 8.49267 18.0911 9.23L17.6291 8.236C18.0211 7.844 18.5064 7.54067 19.0851 7.326C19.6637 7.11133 20.2751 7.004 20.9191 7.004C21.8991 7.004 22.6691 7.228 23.2291 7.676C23.7891 8.124 24.0691 8.74933 24.0691 9.552C24.0691 10.1587 23.8964 10.6813 23.5511 11.12C23.2151 11.5493 22.7531 11.834 22.1651 11.974V11.82C22.8557 11.9413 23.3924 12.226 23.7751 12.674C24.1577 13.1127 24.3491 13.6633 24.3491 14.326C24.3491 15.194 24.0411 15.88 23.4251 16.384C22.8184 16.8787 21.9831 17.126 20.9191 17.126ZM26.3736 17V16.034L29.8176 12.422C30.2656 11.9647 30.5969 11.526 30.8116 11.106C31.0356 10.686 31.1476 10.252 31.1476 9.804C31.1476 9.25333 30.9749 8.838 30.6296 8.558C30.2936 8.26867 29.7989 8.124 29.1456 8.124C28.6416 8.124 28.1656 8.21733 27.7176 8.404C27.2789 8.58133 26.8589 8.85667 26.4576 9.23L25.9956 8.236C26.3783 7.86267 26.8589 7.564 27.4376 7.34C28.0256 7.116 28.6416 7.004 29.2856 7.004C30.2936 7.004 31.0729 7.23733 31.6236 7.704C32.1743 8.16133 32.4496 8.81933 32.4496 9.678C32.4496 10.3033 32.2956 10.9007 31.9876 11.47C31.6889 12.03 31.2456 12.6087 30.6576 13.206L27.6476 16.258V15.894H32.8556V17H26.3736ZM35.0621 17L39.9201 7.718V8.25H34.4601V7.13H41.1101V8.096L36.5041 17H35.0621ZM46.3407 17.126C45.9113 17.126 45.4867 17.0793 45.0667 16.986C44.656 16.8927 44.2687 16.762 43.9047 16.594C43.5407 16.4167 43.2233 16.202 42.9527 15.95L43.4147 14.942C43.872 15.306 44.3387 15.5767 44.8147 15.754C45.2907 15.922 45.79 16.006 46.3127 16.006C47.0033 16.006 47.5447 15.824 47.9367 15.46C48.3287 15.096 48.5247 14.6107 48.5247 14.004C48.5247 13.3787 48.338 12.8747 47.9647 12.492C47.5913 12.1 47.0733 11.904 46.4107 11.904C45.9533 11.904 45.538 11.9973 45.1647 12.184C44.8007 12.3613 44.4787 12.646 44.1987 13.038H43.2747V7.13H49.1967V8.236H44.5347V11.974H44.1987C44.4507 11.6007 44.7913 11.3113 45.2207 11.106C45.6593 10.9007 46.1493 10.798 46.6907 10.798C47.3253 10.798 47.8713 10.9287 48.3287 11.19C48.7953 11.4513 49.1547 11.82 49.4067 12.296C49.668 12.7627 49.7987 13.3087 49.7987 13.934C49.7987 14.5593 49.6587 15.1147 49.3787 15.6C49.0987 16.076 48.6973 16.4493 48.1747 16.72C47.6613 16.9907 47.05 17.126 46.3407 17.126Z" fill="#5A6A84"/>
<path d="M64 11H67C67.5304 11 68.0391 11.2107 68.4142 11.5858C68.7893 11.9609 69 12.4696 69 13V16C69 16.5304 68.7893 17.0391 68.4142 17.4142C68.0391 17.7893 67.5304 18 67 18H66C65.4696 18 64.9609 17.7893 64.5858 17.4142C64.2107 17.0391 64 16.5304 64 16V11ZM64 11C64 9.8181 64.2328 8.64778 64.6851 7.55585C65.1374 6.46392 65.8003 5.47177 66.636 4.63604C67.4718 3.80031 68.4639 3.13738 69.5558 2.68508C70.6478 2.23279 71.8181 2 73 2C74.1819 2 75.3522 2.23279 76.4442 2.68508C77.5361 3.13738 78.5282 3.80031 79.364 4.63604C80.1997 5.47177 80.8626 6.46392 81.3149 7.55585C81.7672 8.64778 82 9.8181 82 11M82 11V16M82 11H79C78.4696 11 77.9609 11.2107 77.5858 11.5858C77.2107 11.9609 77 12.4696 77 13V16C77 16.5304 77.2107 17.0391 77.5858 17.4142C77.9609 17.7893 78.4696 18 79 18H80C80.5304 18 81.0391 17.7893 81.4142 17.4142C81.7893 17.0391 82 16.5304 82 16M82 16V18C82 19.0609 81.5786 20.0783 80.8284 20.8284C80.0783 21.5786 79.0609 22 78 22H73" stroke="#0957DE" stroke-width="2" stroke-linecap="round" stroke-linejoin="round"/>
<path d="M99.13 17.126C98.458 17.126 97.814 17.0233 97.198 16.818C96.5913 16.6127 96.0827 16.3233 95.672 15.95L96.134 14.942C96.5913 15.3153 97.0627 15.586 97.548 15.754C98.0333 15.922 98.5467 16.006 99.088 16.006C99.8067 16.006 100.353 15.8567 100.726 15.558C101.099 15.25 101.286 14.8113 101.286 14.242C101.286 13.682 101.095 13.2573 100.712 12.968C100.339 12.6787 99.788 12.534 99.06 12.534H97.548V11.456H98.962C99.578 11.456 100.073 11.2973 100.446 10.98C100.819 10.6627 101.006 10.2287 101.006 9.678C101.006 9.174 100.833 8.79133 100.488 8.53C100.152 8.25933 99.6713 8.124 99.046 8.124C97.9913 8.124 97.0767 8.49267 96.302 9.23L95.84 8.236C96.232 7.844 96.7173 7.54067 97.296 7.326C97.8747 7.11133 98.486 7.004 99.13 7.004C100.11 7.004 100.88 7.228 101.44 7.676C102 8.124 102.28 8.74933 102.28 9.552C102.28 10.1587 102.107 10.6813 101.762 11.12C101.426 11.5493 100.964 11.834 100.376 11.974V11.82C101.067 11.9413 101.603 12.226 101.986 12.674C102.369 13.1127 102.56 13.6633 102.56 14.326C102.56 15.194 102.252 15.88 101.636 16.384C101.029 16.8787 100.194 17.126 99.13 17.126ZM107.595 17.126C106.456 17.126 105.574 16.8833 104.949 16.398C104.323 15.9127 104.011 15.236 104.011 14.368C104.011 13.6867 104.221 13.122 104.641 12.674C105.07 12.2167 105.625 11.9413 106.307 11.848V12.072C105.681 11.9413 105.182 11.6567 104.809 11.218C104.445 10.7793 104.263 10.252 104.263 9.636C104.263 8.81467 104.557 8.17067 105.145 7.704C105.742 7.23733 106.559 7.004 107.595 7.004C108.64 7.004 109.457 7.23733 110.045 7.704C110.642 8.17067 110.941 8.81467 110.941 9.636C110.941 10.252 110.763 10.784 110.409 11.232C110.063 11.68 109.583 11.96 108.967 12.072V11.848C109.648 11.9413 110.185 12.2167 110.577 12.674C110.978 13.122 111.179 13.6867 111.179 14.368C111.179 15.236 110.866 15.9127 110.241 16.398C109.625 16.8833 108.743 17.126 107.595 17.126ZM107.595 16.076C108.388 16.076 108.976 15.9267 109.359 15.628C109.751 15.3293 109.947 14.886 109.947 14.298C109.947 13.7007 109.751 13.2573 109.359 12.968C108.976 12.6787 108.388 12.534 107.595 12.534C106.811 12.534 106.223 12.6787 105.831 12.968C105.439 13.2573 105.243 13.7007 105.243 14.298C105.243 14.886 105.439 15.3293 105.831 15.628C106.223 15.9267 106.811 16.076 107.595 16.076ZM107.595 11.47C108.276 11.47 108.794 11.3207 109.149 11.022C109.513 10.714 109.695 10.2893 109.695 9.748C109.695 9.216 109.513 8.80067 109.149 8.502C108.794 8.20333 108.276 8.054 107.595 8.054C106.923 8.054 106.405 8.20333 106.041 8.502C105.677 8.80067 105.495 9.216 105.495 9.748C105.495 10.2893 105.677 10.714 106.041 11.022C106.405 11.3207 106.923 11.47 107.595 11.47ZM115.919 17.126C115.247 17.126 114.603 17.0233 113.987 16.818C113.38 16.6127 112.872 16.3233 112.461 15.95L112.923 14.942C113.38 15.3153 113.852 15.586 114.337 15.754C114.822 15.922 115.336 16.006 115.877 16.006C116.596 16.006 117.142 15.8567 117.515 15.558C117.888 15.25 118.075 14.8113 118.075 14.242C118.075 13.682 117.884 13.2573 117.501 12.968C117.128 12.6787 116.577 12.534 115.849 12.534H114.337V11.456H115.751C116.367 11.456 116.862 11.2973 117.235 10.98C117.608 10.6627 117.795 10.2287 117.795 9.678C117.795 9.174 117.622 8.79133 117.277 8.53C116.941 8.25933 116.46 8.124 115.835 8.124C114.78 8.124 113.866 8.49267 113.091 9.23L112.629 8.236C113.021 7.844 113.506 7.54067 114.085 7.326C114.664 7.11133 115.275 7.004 115.919 7.004C116.899 7.004 117.669 7.228 118.229 7.676C118.789 8.124 119.069 8.74933 119.069 9.552C119.069 10.1587 118.896 10.6813 118.551 11.12C118.215 11.5493 117.753 11.834 117.165 11.974V11.82C117.856 11.9413 118.392 12.226 118.775 12.674C119.158 13.1127 119.349 13.6633 119.349 14.326C119.349 15.194 119.041 15.88 118.425 16.384C117.818 16.8787 116.983 17.126 115.919 17.126ZM121.374 17V16.034L124.818 12.422C125.266 11.9647 125.597 11.526 125.812 11.106C126.036 10.686 126.148 10.252 126.148 9.804C126.148 9.25333 125.975 8.838 125.63 8.558C125.294 8.26867 124.799 8.124 124.146 8.124C123.642 8.124 123.166 8.21733 122.718 8.404C122.279 8.58133 121.859 8.85667 121.458 9.23L120.996 8.236C121.378 7.86267 121.859 7.564 122.438 7.34C123.026 7.116 123.642 7.004 124.286 7.004C125.294 7.004 126.073 7.23733 126.624 7.704C127.174 8.16133 127.45 8.81933 127.45 9.678C127.45 10.3033 127.296 10.9007 126.988 11.47C126.689 12.03 126.246 12.6087 125.658 13.206L122.648 16.258V15.894H127.856V17H121.374ZM130.062 17L134.92 7.718V8.25H129.46V7.13H136.11V8.096L131.504 17H130.062ZM140.501 17.126C139.978 17.126 139.455 17.0187 138.933 16.804C138.41 16.5893 137.976 16.3047 137.631 15.95L138.107 14.956C138.452 15.3013 138.83 15.5627 139.241 15.74C139.661 15.9173 140.085 16.006 140.515 16.006C141.429 16.006 142.134 15.6793 142.629 15.026C143.123 14.3633 143.371 13.3833 143.371 12.086V10.84H143.511C143.455 11.3533 143.291 11.8013 143.021 12.184C142.759 12.5573 142.428 12.8467 142.027 13.052C141.625 13.2573 141.168 13.36 140.655 13.36C140.067 13.36 139.544 13.2247 139.087 12.954C138.629 12.6833 138.27 12.3147 138.009 11.848C137.747 11.372 137.617 10.8307 137.617 10.224C137.617 9.59867 137.752 9.04333 138.023 8.558C138.303 8.07267 138.685 7.69467 139.171 7.424C139.656 7.144 140.216 7.004 140.851 7.004C142.064 7.004 142.997 7.42867 143.651 8.278C144.304 9.118 144.631 10.3033 144.631 11.834C144.631 12.9633 144.463 13.9247 144.127 14.718C143.8 15.502 143.329 16.0993 142.713 16.51C142.097 16.9207 141.359 17.126 140.501 17.126ZM140.935 12.282C141.345 12.282 141.705 12.1933 142.013 12.016C142.33 11.8387 142.577 11.5913 142.755 11.274C142.932 10.9567 143.021 10.5927 143.021 10.182C143.021 9.762 142.932 9.398 142.755 9.09C142.577 8.77267 142.33 8.52533 142.013 8.348C141.705 8.16133 141.345 8.068 140.935 8.068C140.524 8.068 140.16 8.16133 139.843 8.348C139.535 8.52533 139.292 8.77267 139.115 9.09C138.947 9.398 138.863 9.762 138.863 10.182C138.863 10.5927 138.947 10.9567 139.115 11.274C139.292 11.5913 139.535 11.8387 139.843 12.016C140.16 12.1933 140.524 12.282 140.935 12.282Z" fill="#5A6A84"/>
</svg>
