<svg width="10" height="9" viewBox="0 0 10 9" xmlns="http://www.w3.org/2000/svg">
<path d="M0.201172 4.36572C0.201172 4.21631 0.262695 4.08447 0.385742 3.97021L3.78711 0.575439C3.90137 0.465576 4.03101 0.410645 4.17603 0.410645C4.32104 0.410645 4.44189 0.458984 4.53857 0.555664C4.63965 0.652344 4.69019 0.775391 4.69019 0.924805C4.69019 0.995117 4.677 1.06323 4.65063 1.12915C4.62866 1.19507 4.59351 1.25 4.54517 1.29395L3.6355 2.23657L1.40747 4.24707L1.28882 3.95703L3.04224 3.83179H9.26489C9.4231 3.83179 9.55054 3.88232 9.64722 3.9834C9.7439 4.08447 9.79224 4.21191 9.79224 4.36572C9.79224 4.51953 9.7439 4.64697 9.64722 4.74805C9.55054 4.84912 9.4231 4.89966 9.26489 4.89966H3.04224L1.28882 4.77441L1.40747 4.49097L3.6355 6.49487L4.54517 7.4375C4.59351 7.48145 4.62866 7.53638 4.65063 7.60229C4.677 7.66821 4.69019 7.73633 4.69019 7.80664C4.69019 7.95605 4.63965 8.0791 4.53857 8.17578C4.44189 8.27246 4.32104 8.3208 4.17603 8.3208C4.03101 8.3208 3.90137 8.26587 3.78711 8.15601L0.385742 4.76123C0.262695 4.64697 0.201172 4.51514 0.201172 4.36572Z" fill="white"/>
</svg>
