<svg width="81" height="35" viewBox="0 0 81 35" fill="none" xmlns="http://www.w3.org/2000/svg">
<path fill-rule="evenodd" clip-rule="evenodd" d="M0.00513782 4.52849V7.05697L6.02671 7.05088L12.0483 7.04492L15.1323 10.3249L18.2164 13.6051L15.0708 16.8792L11.9254 20.1532H9.45957H6.99391V22.6817V25.2102L10.4571 25.208L13.9203 25.2058L19.5363 19.4542L25.1522 13.7025L23.7817 12.2275C23.0278 11.4162 20.5615 8.78309 18.301 6.37623L14.191 2H7.09799H0.00513782V4.52849ZM18.4152 3.97741C19.4399 5.06492 21.7387 7.4876 23.5235 9.36114L26.7686 12.7675L28.4875 10.9814L30.2065 9.19543L26.8267 5.59771L23.4467 2H19.9993H16.5518L18.4152 3.97741ZM27.8136 13.443C21.8824 19.7366 16.9865 24.9591 16.9339 25.0481C16.8583 25.1762 17.5556 25.2102 20.2633 25.2102H23.6883L34.529 13.7147C40.4915 7.39203 45.3885 2.16973 45.4113 2.10957C45.4343 2.04927 43.9105 2 42.0254 2H38.5978L27.8136 13.443ZM46.2729 3.78459C45.3299 4.76617 44.5586 5.61224 44.5586 5.66475C44.5586 5.71727 45.9766 5.76122 47.7097 5.76226C50.0766 5.76369 51.0596 5.81283 51.6593 5.95961C52.5465 6.17693 53.8741 6.86131 54.5425 7.44597L54.9793 7.82797L48.6769 7.8482L42.3746 7.86842L41.3843 8.95386L40.394 10.0393L47.6867 10.0438C53.3545 10.0473 55.1558 10.0878 55.7715 10.225C56.6958 10.4309 58.1609 11.154 58.7857 11.7128L59.2225 12.1034L48.7989 12.1086L38.3751 12.1139L37.4109 13.1217C36.8805 13.676 36.4466 14.1698 36.4466 14.2189C36.4466 14.2681 41.7957 14.3277 48.3337 14.3515C59.0338 14.3902 60.2894 14.4163 60.9063 14.6124C61.7865 14.8919 62.9708 15.5216 63.5281 16.0061L63.9649 16.3859L49.1741 16.3894L34.3835 16.3929L32.919 17.9184C32.1135 18.7575 31.4546 19.4869 31.4546 19.5393C31.4546 19.7004 77.6486 19.6556 78.3751 19.4938C79.2331 19.3025 80.1024 18.666 80.5596 17.8942C80.9084 17.3054 80.9373 17.1652 80.9347 16.0789C80.9331 15.4315 80.8643 14.7414 80.7819 14.5452L80.6318 14.1886H76.1497C71.3338 14.1886 70.5835 14.1164 68.7814 13.4796C67.5003 13.0269 65.805 12.0644 64.7494 11.1906C64.2493 10.7766 62.1289 8.53932 60.0376 6.21894L56.235 2H52.1112H47.9872L46.2729 3.78459ZM0.00513782 17.1061V25.2102H2.62593H5.24672V17.1061V9.00196H2.62593H0.00513782V17.1061ZM28.1147 23.0399C27.0688 24.1283 26.213 25.0634 26.213 25.118C26.213 25.1726 35.9426 25.198 47.8345 25.1747C69.3104 25.1324 69.4642 25.1302 70.6544 24.8578C72.1777 24.5092 73.9071 23.9079 75.2093 23.2738C76.2786 22.7532 78.5024 21.3249 78.5034 21.1582C78.5038 21.1047 67.5943 21.0609 54.2602 21.0609H30.0164L28.1147 23.0399ZM36.9458 27.2849L36.2971 28.0629H37.1191C37.9004 28.0629 37.9972 28.0267 39.0659 27.3366C39.6845 26.9372 40.1906 26.5871 40.1906 26.5586C40.1906 26.5302 39.6065 26.5069 38.8925 26.5069H37.5945L36.9458 27.2849ZM43.3319 28.47C41.3734 28.7131 39.941 30.4394 39.941 32.5564C39.941 33.4664 40.291 34.1806 40.964 34.6433C41.4515 34.9785 41.5659 35 42.8646 35C44.1269 35 44.3084 34.9684 44.9609 34.6355C46.2785 33.9632 47.0545 32.6043 47.0545 30.9691C47.0545 30.0195 46.8723 29.5507 46.3134 29.0619C45.6671 28.497 44.6855 28.3021 43.3319 28.47ZM0.591945 31.5842C0.263598 33.3203 -0.00272455 34.7889 2.10397e-05 34.8478C0.00289143 34.9068 1.08615 34.9359 2.40753 34.9126C4.60487 34.874 4.8541 34.8458 5.32696 34.583C6.10696 34.1497 6.71373 33.3294 7.01388 32.3028C7.47414 30.7287 7.13917 29.4463 6.10983 28.8409C5.59041 28.5354 5.43329 28.5141 3.37373 28.4722L1.18886 28.4277L0.591945 31.5842ZM8.30468 28.7436C8.22867 29.0754 7.11871 34.8323 7.11871 34.8946C7.11871 34.9169 8.3496 34.9352 9.85394 34.9352H12.5892L12.7243 34.2805C12.7987 33.9204 12.8595 33.5703 12.8595 33.5025C12.8595 33.4313 12.22 33.3792 11.3473 33.3792C9.84009 33.3792 9.83547 33.3783 9.91047 33.0874C9.95178 32.9269 9.98647 32.7228 9.98735 32.6336C9.9886 32.5135 10.3588 32.4715 11.4169 32.4715C12.2023 32.4715 12.8728 32.4244 12.907 32.3669C12.9412 32.3092 13.008 31.9591 13.0553 31.5889L13.1413 30.9155H11.7524C10.305 30.9155 10.2384 30.8865 10.4392 30.3427C10.5024 30.1716 10.7597 30.1375 11.9859 30.1375C13.6302 30.1375 13.5433 30.1907 13.6823 29.1018L13.7653 28.4519H11.0684C8.37457 28.4519 8.37132 28.4523 8.30468 28.7436ZM14.548 28.6103C14.4827 28.8125 13.3578 34.7013 13.3583 34.8379C13.3586 34.8913 13.8272 34.9352 14.3999 34.9352H15.441L15.8612 32.8011C16.0922 31.6274 16.3057 30.6925 16.3355 30.7235C16.3654 30.7546 16.4239 31.7003 16.4654 32.8251L16.5411 34.8703L17.6019 34.9064L18.6627 34.9423L19.5883 32.7993C20.0974 31.6206 20.5277 30.6708 20.5445 30.6886C20.5614 30.7065 20.391 31.6713 20.1659 32.8328L19.7567 34.9445L20.8867 34.9074L22.0168 34.8703L22.6137 31.8232C22.942 30.1472 23.2122 28.7032 23.2142 28.614C23.217 28.4917 22.7798 28.4519 21.4338 28.4519H19.6498L18.969 30.1297L18.2883 31.8076L18.2259 30.1622L18.1635 28.5167L16.3824 28.4807C15.0236 28.4533 14.5888 28.484 14.548 28.6103ZM23.4201 31.4666C23.095 33.1246 22.8004 34.5834 22.7654 34.7083C22.7078 34.9136 22.8205 34.9352 23.9559 34.9352C25.1534 34.9352 25.2129 34.9221 25.2767 34.6434C25.4317 33.9668 26.4626 28.6941 26.4626 28.5784C26.4626 28.5048 25.9505 28.4519 25.237 28.4519H24.0113L23.4201 31.4666ZM27.2114 28.4925C27.2114 28.5547 26.1015 34.3116 26.0255 34.6434C25.9597 34.931 25.9763 34.9352 27.1957 34.9352C28.0704 34.9352 28.4501 34.8877 28.492 34.7731C28.5247 34.684 28.6239 34.188 28.7126 33.6709C28.8585 32.8195 28.9013 32.7308 29.1658 32.7308C29.3264 32.7308 29.5641 32.8413 29.6941 32.9763C29.8942 33.1843 29.9203 33.3531 29.8642 34.0785L29.798 34.9352H31.1255H32.453V34.059C32.453 32.9724 32.287 32.3451 31.9225 32.0535C31.69 31.8675 31.6785 31.8285 31.8558 31.826C32.1929 31.8215 32.9225 31.0779 33.0817 30.5764C33.2565 30.0264 33.1526 29.3411 32.8516 29.0581C32.306 28.5451 31.7845 28.4519 29.4618 28.4519C28.224 28.4519 27.2114 28.4701 27.2114 28.4925ZM33.6076 28.614C33.6396 28.7032 33.9666 29.7222 34.3342 30.8788L35.0028 32.9815L34.8055 33.9627L34.6082 34.9439L35.8661 34.907L37.124 34.8703L37.2956 33.9627C37.4583 33.1021 37.5506 32.9392 39.0785 30.8201C39.9647 29.5909 40.6898 28.5551 40.6898 28.5185C40.6898 28.4818 40.1124 28.4519 39.4067 28.4519H38.1238L37.4442 29.6733C37.0705 30.345 36.7296 30.8722 36.6867 30.8446C36.6439 30.8171 36.5361 30.2675 36.4472 29.6233L36.2856 28.4519H34.9175C33.8753 28.4519 33.5633 28.4905 33.6076 28.614ZM47.7524 31.4666C47.4272 33.1246 47.133 34.5846 47.0986 34.7108C47.0401 34.9261 47.2048 34.9381 49.7547 34.9053L52.4732 34.8703L52.6288 34.0923C52.7144 33.6644 52.7868 33.2415 52.7898 33.1523C52.7939 33.0318 52.4314 32.9902 51.3773 32.9902H49.9595L50.3789 30.8276C50.6097 29.6382 50.7985 28.6171 50.7985 28.5585C50.7985 28.4998 50.2462 28.4519 49.5711 28.4519H48.3438L47.7524 31.4666ZM54.4177 28.4925C54.4177 28.5547 53.3077 34.3116 53.2317 34.6434L53.165 34.9352H57.1396H61.1142L61.4088 34.2817L61.7034 33.6281L62.5846 33.6657L63.4657 33.7033L63.5037 34.3193L63.5418 34.9352H64.8453C65.9491 34.9352 66.1489 34.9038 66.1489 34.7307C66.1489 34.6183 65.9523 33.21 65.7121 31.6013C65.4718 29.9927 65.2753 28.626 65.2753 28.5642C65.2753 28.5024 64.5275 28.4519 63.6136 28.4519H61.9519L61.7562 28.8733C61.6485 29.105 60.9033 30.52 60.1002 32.0177C58.6434 34.7343 58.6029 34.7783 58.8742 33.3468L58.9417 32.9902H57.4885C56.0451 32.9902 56.0357 32.9882 56.1018 32.6984C56.1822 32.3446 56.9137 28.5594 56.9137 28.4965C56.9137 28.472 56.3521 28.4519 55.6657 28.4519C54.9793 28.4519 54.4177 28.4701 54.4177 28.4925ZM67.5844 28.7436C67.5084 29.0754 66.3985 34.8323 66.3985 34.8946C66.3985 34.9169 66.9529 34.9352 67.6306 34.9352H68.8626L69.0853 33.833C69.321 32.6656 69.4424 32.5406 70.0259 32.8651C70.2314 32.9794 70.2672 33.1429 70.2672 33.9672V34.9352H71.591C72.7468 34.9352 72.9051 34.9091 72.839 34.73C72.7973 34.6172 72.7632 34.0709 72.7632 33.516C72.7632 32.5986 72.7333 32.4758 72.4343 32.165C72.2107 31.9329 72.1641 31.8232 72.2886 31.8232C72.3895 31.8232 72.6815 31.6335 72.9376 31.4018C73.8797 30.549 73.7791 29.2015 72.7368 28.7099C72.2702 28.4899 71.9104 28.4572 69.9264 28.4547C67.6689 28.4519 67.6507 28.4541 67.5844 28.7436ZM74.0112 28.5491C74.0112 28.6075 74.3227 29.616 74.7035 30.7903C75.3853 32.8928 75.3938 32.9371 75.258 33.7033C75.1822 34.1312 75.0915 34.5834 75.0565 34.7083C74.9989 34.9136 75.1112 34.9352 76.2408 34.9352C77.6398 34.9352 77.5067 35.0397 77.7532 33.7473C77.8754 33.1062 78.0898 32.7411 79.4465 30.8647C80.301 29.683 81 28.6567 81 28.584C81 28.5031 80.5185 28.4519 79.7586 28.4519H78.5171L77.8554 29.6808C77.4914 30.3568 77.1612 30.9111 77.1216 30.9127C77.0819 30.9142 76.9696 30.3759 76.872 29.7161L76.6944 28.5167L75.3528 28.4799C74.6149 28.4596 74.0112 28.4908 74.0112 28.5491ZM30.2609 30.1343C30.4439 30.2066 30.581 30.3626 30.581 30.4985C30.581 30.9433 30.2749 31.1987 29.6547 31.2713L29.0557 31.3415L29.1413 30.9016C29.1884 30.6597 29.2545 30.3596 29.2883 30.2348C29.3572 29.9804 29.7647 29.9384 30.2609 30.1343ZM44.2377 30.2116C44.5106 30.4953 44.5288 31.1738 44.2899 32.1473C44.0562 33.0988 43.1719 33.7019 42.7115 33.2236C42.3053 32.8015 42.7138 30.8736 43.3222 30.3417C43.7635 29.9559 43.9641 29.9275 44.2377 30.2116ZM70.7684 30.2428C71.2925 30.6837 70.7706 31.3045 69.876 31.3045C69.499 31.3045 69.4971 31.3009 69.5842 30.7534C69.6325 30.4503 69.6969 30.1585 69.7274 30.1051C69.8321 29.9212 70.4895 30.0081 70.7684 30.2428ZM4.37312 30.3969C4.67189 30.7073 4.68811 31.1583 4.43277 32.0519C4.20751 32.8398 3.77283 33.2495 3.16231 33.2495C2.81363 33.2495 2.74561 33.2072 2.79653 33.0226C2.83097 32.8977 2.95078 32.2997 3.06273 31.6935C3.17467 31.0873 3.29448 30.4893 3.32892 30.3644C3.41591 30.0495 4.05788 30.0693 4.37312 30.3969ZM63.3908 31.4666C63.4031 31.9499 63.4003 31.9529 62.9023 31.9529H62.4013L62.7994 31.1424C63.1675 30.3931 63.2043 30.3564 63.288 30.6562C63.3376 30.8345 63.3839 31.1992 63.3908 31.4666Z" fill="#3843E4"/>
<path d="M80.4834 12.1496C76.2527 1.13336 64.1952 -0.473179 58.6953 0.100586C60.0491 2.26447 64.7593 7.39561 66.9452 9.69069C69.9913 12.6415 77.2398 12.5595 80.4834 12.1496Z" fill="url(#paint0_linear_1251_3925)"/>
<defs>
<linearGradient id="paint0_linear_1251_3925" x1="69.5893" y1="0" x2="69.5893" y2="12.3576" gradientUnits="userSpaceOnUse">
<stop stop-color="#F1F5F9"/>
<stop offset="1" stop-color="#8E9193"/>
</linearGradient>
</defs>
</svg>
