<svg width="24" height="24" viewBox="0 0 24 24" fill="none" xmlns="http://www.w3.org/2000/svg">
<g clip-path="url(#clip0_3028_3443)">
<path d="M23.5861 19.8618H0.413812C0.185297 19.8618 0 19.6765 0 19.448V4.55151C0 4.32299 0.185297 4.1377 0.413812 4.1377H23.5862C23.8147 4.1377 24 4.32299 24 4.55151V19.448C24 19.6766 23.8147 19.8618 23.5861 19.8618Z" fill="#73AF00"/>
<path d="M7.44671 4.1377H3.30859V19.8619H7.44671V4.1377Z" fill="#FF4B55"/>
<path d="M7.03301 5.93105L6.20543 6.62072H4.55023L3.72266 5.93105V5.24138L4.55023 4.55176H6.20543L7.03301 5.24138V5.93105Z" fill="#F5F5F5"/>
<path d="M7.03301 11.724L6.20543 12.4137H4.55023L3.72266 11.724V11.0344L4.55023 10.3447H6.20543L7.03301 11.0344V11.724Z" fill="#73AF00"/>
<path d="M7.03301 8.82754L6.20543 9.51721H4.55023L3.72266 8.82754V8.13791L4.55023 7.44824H6.20543L7.03301 8.13791V8.82754Z" fill="#73AF00"/>
<path d="M7.03301 14.6205L6.20543 15.3102H4.55023L3.72266 14.6205V13.9309L4.55023 13.2412H6.20543L7.03301 13.9309V14.6205Z" fill="#73AF00"/>
<path d="M3.3125 6.20703L4.14008 7.03461L3.3125 7.86219V6.20703Z" fill="#FFB400"/>
<path d="M7.44867 7.86219L6.62109 7.03461L7.44867 6.20703V7.86219Z" fill="#FFB400"/>
<path d="M3.3125 9.10352L4.14008 9.93109L3.3125 10.7587V9.10352Z" fill="#FFB400"/>
<path d="M7.44867 10.7587L6.62109 9.93109L7.44867 9.10352V10.7587Z" fill="#FFB400"/>
<path d="M3.3125 12L4.14008 12.8276L3.3125 13.6552V12Z" fill="#FFB400"/>
<path d="M7.44867 13.6552L6.62109 12.8276L7.44867 12V13.6552Z" fill="#FFB400"/>
<path d="M3.3125 14.8965L4.14008 15.7241L3.3125 16.5516V14.8965Z" fill="#FFB400"/>
<path d="M7.44867 16.5516L6.62109 15.7241L7.44867 14.8965V16.5516Z" fill="#FFB400"/>
<path d="M3.3125 4.1377H4.14008L3.3125 4.96527V4.1377Z" fill="#FFB400"/>
<path d="M7.44867 4.96527L6.62109 4.1377H7.44867V4.96527Z" fill="#FFB400"/>
<path d="M5.58959 7.44824H5.17578V9.5173H5.58959V7.44824Z" fill="#FFB400"/>
<path d="M6.20593 8.27539H4.55078V8.6892H6.20593V8.27539Z" fill="#FF4B55"/>
<path d="M6.6247 7.79305L6.21094 7.44824V9.51721L6.6247 9.17235V7.79305Z" fill="#FFB400"/>
<path d="M4.14062 9.1723L4.55439 9.51716V7.44824L4.14062 7.79301V9.1723Z" fill="#FFB400"/>
<path d="M5.38172 4.55176H4.55419L3.72656 5.24138V5.58624H5.38172V4.55176Z" fill="#FFB400"/>
<path d="M5.38281 6.62042H6.21044L7.03801 5.93075V5.58594H5.38281V6.62042Z" fill="#FFB400"/>
<path d="M5.37836 6.20623L4.55078 5.588L5.37836 4.96484L6.20598 5.588L5.37836 6.20623Z" fill="#FF4B55"/>
<path d="M5.37891 6.20661L6.20653 5.58838L6.2033 5.58594H5.37891V6.20661Z" fill="#73AF00"/>
<path d="M5.37898 5.58556V4.96484L4.55469 5.58556H5.37898Z" fill="#73AF00"/>
<path d="M6.20593 10.7588H4.55078V12.0002H6.20593V10.7588Z" fill="#FF4B55"/>
<path d="M6.62084 11.1719H6.20703V11.5857H6.62084V11.1719Z" fill="#FFB400"/>
<path d="M5.58569 11.1719H5.17188V11.5857H5.58569V11.1719Z" fill="#F5F5F5"/>
<path d="M5.58569 13.6553H5.17188V14.0691H5.58569V13.6553Z" fill="#FF4B55"/>
<path d="M6.20678 14.0693H5.79297V14.4831H6.20678V14.0693Z" fill="#FFB400"/>
<path d="M4.96459 14.0693H4.55078V14.4831H4.96459V14.0693Z" fill="#FFB400"/>
<path d="M5.58569 14.4824H5.17188V14.8962H5.58569V14.4824Z" fill="#FF4B55"/>
<path d="M4.55053 11.1719H4.13672V11.5857H4.55053V11.1719Z" fill="#FFB400"/>
<path d="M7.03301 17.517L6.20543 18.2067H4.55023L3.72266 17.517V16.8274L4.55023 16.1377H6.20543L7.03301 16.8274V17.517Z" fill="#F5F5F5"/>
<path d="M5.38172 16.1377H4.55419L3.72656 16.8274V17.1722H5.38172V16.1377Z" fill="#FFB400"/>
<path d="M5.38281 18.2064H6.21044L7.03801 17.5167V17.1719H5.38281V18.2064Z" fill="#FFB400"/>
<path d="M6.20598 17.3793L5.37836 17.7931L4.55078 17.3793V16.9656L5.37836 16.5518L6.20598 16.9656V17.3793Z" fill="#FF4B55"/>
<path d="M13.1253 6.39148C13.0813 6.36982 13.0414 6.42715 13.0772 6.46086C13.5454 6.90274 13.8414 7.52332 13.8414 8.21552C13.8414 9.57522 12.7484 10.6661 11.4045 10.6661C11.1565 10.6661 10.9175 10.6274 10.6922 10.557C10.6455 10.5424 10.6152 10.605 10.6555 10.633C11.0484 10.9061 11.5219 11.0694 12.0389 11.0694C13.4006 11.0694 14.5133 9.97835 14.5133 8.59891C14.5133 7.62945 13.9443 6.79409 13.1253 6.39148Z" fill="#F5F5F5"/>
<path d="M9.75866 7.98789L9.65745 8.27425L9.89558 8.46274C9.92642 8.48716 9.90847 8.53675 9.86914 8.53572L9.56553 8.52789L9.45988 8.81261C9.44619 8.8495 9.39345 8.84772 9.3823 8.81003L9.29591 8.51889L8.99244 8.50638C8.95311 8.50478 8.93853 8.45406 8.97092 8.4318L9.22114 8.25967L9.13925 7.96717C9.12866 7.9293 9.17234 7.89972 9.20356 7.92367L9.44459 8.10845L9.69748 7.94017C9.73011 7.91838 9.77174 7.95081 9.75866 7.98789Z" fill="#F5F5F5"/>
<path d="M10.9891 8.60899L10.8879 8.89534L11.126 9.08383C11.1569 9.10825 11.1389 9.15784 11.0996 9.15681L10.796 9.14898L10.6903 9.4337C10.6767 9.47059 10.6239 9.46881 10.6128 9.43112L10.5264 9.13998L10.2229 9.12747C10.1836 9.12588 10.169 9.07516 10.2014 9.05289L10.4516 8.88077L10.3697 8.58827C10.3591 8.55039 10.4028 8.52081 10.434 8.54477L10.6751 8.72955L10.928 8.56127C10.9606 8.53952 11.0022 8.57195 10.9891 8.60899Z" fill="#F5F5F5"/>
<path d="M10.9774 7.32969L10.8762 7.61605L11.1143 7.80453C11.1452 7.82895 11.1272 7.87855 11.0879 7.87752L10.7843 7.86969L10.6786 8.15441C10.6649 8.1913 10.6122 8.18951 10.601 8.15183L10.5147 7.86069L10.2112 7.84817C10.1719 7.84658 10.1573 7.79586 10.1897 7.77359L10.4399 7.60147L10.358 7.30897C10.3474 7.2711 10.3911 7.24152 10.4223 7.26547L10.6633 7.45025L10.9162 7.28197C10.9489 7.26022 10.9905 7.29266 10.9774 7.32969Z" fill="#F5F5F5"/>
<path d="M11.0165 6.09434L10.9153 6.3807L11.1534 6.56918C11.1842 6.5936 11.1663 6.6432 11.127 6.64216L10.8233 6.63434L10.7177 6.91905C10.704 6.95595 10.6513 6.95416 10.6401 6.91648L10.5537 6.62534L10.2503 6.61282C10.2109 6.61123 10.1963 6.56051 10.2287 6.53824L10.479 6.36612L10.3971 6.07362C10.3865 6.03574 10.4302 6.00617 10.4614 6.03012L10.7024 6.2149L10.9553 6.04662C10.9879 6.02482 11.0295 6.05726 11.0165 6.09434Z" fill="#F5F5F5"/>
<path d="M12.2235 6.71543L12.1223 7.00179L12.3604 7.19027C12.3913 7.2147 12.3733 7.26429 12.334 7.26326L12.0304 7.25543L11.9247 7.54015C11.911 7.57704 11.8583 7.57526 11.8471 7.53757L11.7608 7.24643L11.4573 7.23392C11.418 7.23232 11.4034 7.1816 11.4358 7.15934L11.686 6.98721L11.6041 6.69471C11.5935 6.65684 11.6372 6.62726 11.6684 6.65121L11.9094 6.83599L12.1623 6.66771C12.195 6.64592 12.2366 6.67835 12.2235 6.71543Z" fill="#F5F5F5"/>
</g>
<defs>
<clipPath id="clip0_3028_3443">
<rect width="24" height="24" fill="white"/>
</clipPath>
</defs>
</svg>
